<?xml version="1.0" encoding="UTF-8"?>
<svg xmlns="http://www.w3.org/2000/svg" xmlns:xlink="http://www.w3.org/1999/xlink" width="30pt" height="30.000001pt" viewBox="0 0 30 30.000001" version="1.2">
<defs>
<clipPath id="clip1">
  <path d="M 2 1.234375 L 27.925781 1.234375 L 27.925781 28.089844 L 2 28.089844 Z M 2 1.234375 "/>
</clipPath>
<clipPath id="clip2">
  <path d="M 3 1.234375 L 24 1.234375 L 24 13 L 3 13 Z M 3 1.234375 "/>
</clipPath>
<clipPath id="clip3">
  <path d="M 15 12 L 27.925781 12 L 27.925781 26 L 15 26 Z M 15 12 "/>
</clipPath>
<clipPath id="clip4">
  <path d="M 3 17 L 24 17 L 24 28.089844 L 3 28.089844 Z M 3 17 "/>
</clipPath>
</defs>
<g id="surface1">
<g clip-path="url(#clip1)" clip-rule="nonzero">
<path style=" stroke:none;fill-rule:nonzero;fill:rgb(100%,100%,100%);fill-opacity:1;" d="M 10.996094 2.230469 C 7.839844 3.351562 5.140625 5.777344 3.644531 8.871094 C 3.121094 9.9375 2.746094 11.054688 2.507812 12.242188 C 1.933594 15.144531 2.339844 18.253906 3.628906 20.894531 C 4.476562 22.621094 5.683594 24.160156 7.160156 25.347656 C 8.550781 26.484375 10.164062 27.339844 11.878906 27.792969 C 14.050781 28.390625 16.34375 28.371094 18.53125 27.863281 C 20.5 27.394531 22.367188 26.433594 23.863281 25.015625 C 25.441406 23.53125 26.558594 21.574219 27.152344 19.460938 C 27.800781 17.171875 27.882812 14.707031 27.476562 12.367188 C 23.402344 12.367188 19.328125 12.367188 15.257812 12.367188 C 15.257812 14.113281 15.257812 15.84375 15.257812 17.589844 C 17.617188 17.589844 19.972656 17.589844 22.332031 17.589844 C 22.0625 19.25 21.09375 20.789062 19.738281 21.730469 C 18.871094 22.324219 17.886719 22.710938 16.867188 22.902344 C 15.851562 23.078125 14.78125 23.113281 13.761719 22.902344 C 12.726562 22.691406 11.742188 22.238281 10.875 21.609375 C 9.503906 20.613281 8.433594 19.144531 7.90625 17.503906 C 7.347656 15.824219 7.347656 13.972656 7.90625 12.296875 C 8.296875 11.125 8.941406 10.023438 9.789062 9.132812 C 10.84375 8.03125 12.199219 7.230469 13.675781 6.914062 C 14.933594 6.636719 16.257812 6.6875 17.496094 7.070312 C 18.546875 7.402344 19.5 7.996094 20.296875 8.765625 C 21.09375 7.945312 21.890625 7.125 22.691406 6.304688 C 23.113281 5.867188 23.554688 5.445312 23.945312 4.992188 C 22.742188 3.839844 21.316406 2.914062 19.769531 2.320312 C 16.953125 1.253906 13.8125 1.234375 10.996094 2.230469 Z M 10.996094 2.230469 "/>
</g>
<g clip-path="url(#clip2)" clip-rule="nonzero">
<path style=" stroke:none;fill-rule:nonzero;fill:rgb(91.758728%,26.269531%,20.779419%);fill-opacity:1;" d="M 10.996094 2.230469 C 13.796875 1.234375 16.953125 1.253906 19.753906 2.320312 C 21.296875 2.914062 22.722656 3.820312 23.929688 4.992188 C 23.523438 5.445312 23.082031 5.867188 22.671875 6.304688 C 21.875 7.125 21.078125 7.945312 20.28125 8.765625 C 19.5 7.996094 18.53125 7.402344 17.480469 7.070312 C 16.257812 6.6875 14.917969 6.636719 13.660156 6.914062 C 12.199219 7.246094 10.824219 8.03125 9.773438 9.132812 C 8.925781 10.023438 8.28125 11.109375 7.890625 12.296875 C 6.464844 11.160156 5.054688 10.023438 3.628906 8.890625 C 5.140625 5.777344 7.839844 3.351562 10.996094 2.230469 Z M 10.996094 2.230469 "/>
</g>
<path style=" stroke:none;fill-rule:nonzero;fill:rgb(98.429871%,73.728943%,1.959229%);fill-opacity:1;" d="M 2.507812 12.226562 C 2.746094 11.054688 3.121094 9.917969 3.644531 8.855469 C 5.070312 9.988281 6.480469 11.125 7.90625 12.261719 C 7.347656 13.9375 7.347656 15.789062 7.90625 17.46875 C 6.480469 18.605469 5.070312 19.738281 3.644531 20.875 C 2.339844 18.21875 1.949219 15.125 2.507812 12.226562 Z M 2.507812 12.226562 "/>
<g clip-path="url(#clip3)" clip-rule="nonzero">
<path style=" stroke:none;fill-rule:nonzero;fill:rgb(25.878906%,52.159119%,95.689392%);fill-opacity:1;" d="M 15.238281 12.367188 C 19.3125 12.367188 23.386719 12.367188 27.460938 12.367188 C 27.867188 14.726562 27.78125 17.171875 27.136719 19.460938 C 26.542969 21.574219 25.421875 23.515625 23.84375 25.015625 C 22.46875 23.914062 21.09375 22.816406 19.71875 21.714844 C 21.078125 20.769531 22.046875 19.25 22.316406 17.574219 C 19.957031 17.574219 17.597656 17.574219 15.238281 17.574219 C 15.238281 15.84375 15.238281 14.097656 15.238281 12.367188 Z M 15.238281 12.367188 "/>
</g>
<g clip-path="url(#clip4)" clip-rule="nonzero">
<path style=" stroke:none;fill-rule:nonzero;fill:rgb(20.388794%,65.879822%,32.548523%);fill-opacity:1;" d="M 3.644531 20.875 C 5.070312 19.738281 6.480469 18.605469 7.90625 17.46875 C 8.449219 19.109375 9.503906 20.578125 10.875 21.574219 C 11.742188 22.203125 12.726562 22.640625 13.761719 22.867188 C 14.78125 23.078125 15.832031 23.058594 16.867188 22.867188 C 17.886719 22.675781 18.871094 22.289062 19.738281 21.695312 C 21.113281 22.796875 22.488281 23.898438 23.863281 25 C 22.367188 26.414062 20.519531 27.375 18.53125 27.847656 C 16.359375 28.355469 14.050781 28.371094 11.878906 27.777344 C 10.164062 27.304688 8.550781 26.46875 7.160156 25.332031 C 5.699219 24.144531 4.476562 22.585938 3.644531 20.875 Z M 3.644531 20.875 "/>
</g>
</g>
</svg>
