<?xml version="1.0" encoding="UTF-8"?>
<svg xmlns="http://www.w3.org/2000/svg" xmlns:xlink="http://www.w3.org/1999/xlink" width="30pt" height="30.000001pt" viewBox="0 0 30 30.000001" version="1.2">
<defs>
<clipPath id="clip1">
  <path d="M 1.320312 0.835938 L 28.898438 0.835938 L 28.898438 28.414062 L 1.320312 28.414062 Z M 1.320312 0.835938 "/>
</clipPath>
<clipPath id="clip2">
  <path d="M 1.320312 7.425781 L 22.535156 7.425781 L 22.535156 28.414062 L 1.320312 28.414062 Z M 1.320312 7.425781 "/>
</clipPath>
</defs>
<g id="surface1">
<g clip-path="url(#clip1)" clip-rule="nonzero">
<path style=" stroke:none;fill-rule:nonzero;fill:rgb(15.289307%,25.099182%,53.329468%);fill-opacity:1;" d="M 29.128906 27.078125 C 29.128906 27.9375 28.421875 28.644531 27.5625 28.644531 L 2.882812 28.644531 C 2.023438 28.644531 1.320312 27.9375 1.320312 27.078125 L 1.320312 2.398438 C 1.320312 1.539062 2.023438 0.835938 2.882812 0.835938 L 27.5625 0.835938 C 28.421875 0.835938 29.128906 1.539062 29.128906 2.398438 L 29.128906 27.078125 "/>
</g>
<g clip-path="url(#clip2)" clip-rule="nonzero">
<path style=" stroke:none;fill-rule:nonzero;fill:rgb(12.548828%,18.429565%,35.688782%);fill-opacity:1;" d="M 18.800781 16.332031 C 18.742188 16.273438 18.648438 16.273438 18.589844 16.332031 L 18.453125 16.46875 C 18.453125 16.46875 18.449219 16.46875 18.449219 16.46875 L 18.175781 16.746094 L 16.355469 18.566406 C 15.671875 18.109375 14.5 16.953125 13.757812 16.210938 C 13.753906 16.207031 13.753906 16.207031 13.753906 16.207031 C 13.753906 16.207031 13.75 16.203125 13.75 16.203125 C 13.011719 15.460938 11.855469 14.292969 11.398438 13.605469 L 13.457031 11.546875 L 13.628906 11.371094 C 13.6875 11.316406 13.6875 11.21875 13.628906 11.160156 L 9.949219 7.476562 C 9.890625 7.417969 9.792969 7.417969 9.734375 7.476562 L 9.488281 7.726562 L 8.765625 8.449219 L 8.625 8.585938 L 8.488281 8.726562 L 8.351562 8.863281 L 8.210938 9 L 8.074219 9.140625 L 7.9375 9.277344 L 7.796875 9.414062 C 7.796875 9.414062 7.796875 9.417969 7.796875 9.417969 L 7.523438 9.691406 L 7.382812 9.828125 L 7.246094 9.96875 L 7.109375 10.105469 L 6.96875 10.242188 L 6.832031 10.382812 L 6.691406 10.519531 L 6.554688 10.660156 L 6.417969 10.796875 L 6.277344 10.933594 L 6.140625 11.074219 L 6.003906 11.210938 L 5.863281 11.347656 L 5.726562 11.488281 L 5.589844 11.625 L 5.449219 11.761719 L 5.3125 11.902344 L 5.035156 12.175781 C 5.035156 12.175781 5.035156 12.179688 5.035156 12.179688 L 4.761719 12.453125 L 4.621094 12.589844 L 4.484375 12.730469 L 4.347656 12.867188 L 4.34375 12.867188 L 4.207031 13.003906 L 4.070312 13.144531 L 3.933594 13.28125 L 3.929688 13.28125 L 3.792969 13.421875 L 3.65625 13.558594 L 3.515625 13.695312 L 3.378906 13.835938 L 2.414062 14.800781 L 2.273438 14.9375 C 2.273438 14.9375 2.273438 14.941406 2.273438 14.941406 L 2 15.214844 L 1.859375 15.351562 C 1.859375 15.351562 1.859375 15.351562 1.859375 15.355469 L 1.585938 15.628906 L 1.582031 15.628906 L 1.445312 15.765625 C 1.445312 15.769531 1.445312 15.769531 1.445312 15.769531 L 1.320312 15.894531 L 1.320312 27.078125 C 1.320312 27.9375 2.023438 28.644531 2.882812 28.644531 L 14.066406 28.644531 L 14.46875 28.242188 L 14.472656 28.242188 L 14.609375 28.101562 L 14.746094 27.964844 L 14.886719 27.828125 L 15.160156 27.550781 L 15.300781 27.414062 L 15.300781 27.410156 L 17.230469 25.480469 L 17.234375 25.480469 L 17.371094 25.339844 L 17.507812 25.203125 L 17.648438 25.066406 L 17.648438 25.0625 L 19.855469 22.855469 L 19.996094 22.71875 L 20.132812 22.578125 L 20.269531 22.441406 L 20.410156 22.304688 L 20.410156 22.300781 L 22.484375 20.226562 C 22.542969 20.167969 22.542969 20.074219 22.484375 20.015625 L 18.800781 16.332031 "/>
</g>
<path style=" stroke:none;fill-rule:nonzero;fill:rgb(100%,100%,100%);fill-opacity:1;" d="M 9.734375 7.476562 C 9.792969 7.417969 9.890625 7.417969 9.949219 7.476562 L 13.628906 11.160156 C 13.6875 11.21875 13.6875 11.316406 13.628906 11.371094 L 13.074219 11.929688 C 13.015625 11.988281 12.917969 11.988281 12.863281 11.929688 L 9.179688 8.246094 C 9.121094 8.1875 9.121094 8.09375 9.179688 8.035156 L 9.734375 7.476562 "/>
<path style=" stroke:none;fill-rule:nonzero;fill:rgb(100%,100%,100%);fill-opacity:1;" d="M 18.589844 16.332031 C 18.648438 16.273438 18.742188 16.273438 18.800781 16.332031 L 22.484375 20.015625 C 22.542969 20.074219 22.542969 20.167969 22.484375 20.226562 L 21.925781 20.785156 C 21.871094 20.84375 21.773438 20.84375 21.71875 20.785156 L 18.03125 17.101562 C 17.972656 17.042969 17.972656 16.945312 18.03125 16.890625 L 18.589844 16.332031 "/>
<path style=" stroke:none;fill-rule:nonzero;fill:rgb(100%,100%,100%);fill-opacity:1;" d="M 8.027344 9.84375 C 7.464844 12.191406 9.132812 15.117188 11.980469 17.972656 C 11.980469 17.972656 11.984375 17.976562 11.984375 17.976562 C 11.988281 17.976562 11.988281 17.980469 11.988281 17.980469 C 14.84375 20.828125 17.773438 22.496094 20.121094 21.9375 C 20.765625 21.769531 21.453125 21.351562 21.367188 21.277344 C 21.28125 21.207031 17.671875 17.582031 17.5625 17.46875 C 17.449219 17.359375 17.105469 18.308594 16.890625 18.707031 C 16.675781 19.097656 14.796875 17.25 13.757812 16.210938 C 13.753906 16.207031 13.753906 16.207031 13.753906 16.207031 C 13.753906 16.207031 13.75 16.203125 13.75 16.203125 C 12.714844 15.164062 10.863281 13.285156 11.257812 13.074219 C 11.652344 12.859375 12.601562 12.511719 12.492188 12.402344 C 12.347656 12.257812 8.789062 8.71875 8.683594 8.59375 C 8.613281 8.511719 8.195312 9.195312 8.027344 9.84375 "/>
</g>
</svg>
