<?xml version="1.0" encoding="UTF-8"?>
<svg xmlns="http://www.w3.org/2000/svg" xmlns:xlink="http://www.w3.org/1999/xlink" width="30pt" height="30.000001pt" viewBox="0 0 30 30.000001" version="1.2">
<defs>
<clipPath id="clip1">
  <path d="M 2.296875 1.816406 L 27.703125 1.816406 L 27.703125 27.21875 L 2.296875 27.21875 Z M 2.296875 1.816406 "/>
</clipPath>
<clipPath id="clip2">
  <path d="M 2.296875 1.816406 L 27.703125 1.816406 L 27.703125 14 L 2.296875 14 Z M 2.296875 1.816406 "/>
</clipPath>
<clipPath id="clip3">
  <path d="M 2.296875 13 L 27.703125 13 L 27.703125 27.21875 L 2.296875 27.21875 Z M 2.296875 13 "/>
</clipPath>
</defs>
<g id="surface1">
<g clip-path="url(#clip1)" clip-rule="nonzero">
<path style=" stroke:none;fill-rule:nonzero;fill:rgb(100%,80.778503%,32.159424%);fill-opacity:1;" d="M 27.703125 14.515625 C 27.703125 15.351562 27.621094 16.175781 27.457031 16.992188 C 27.292969 17.8125 27.054688 18.605469 26.734375 19.375 C 26.414062 20.148438 26.023438 20.878906 25.5625 21.574219 C 25.097656 22.265625 24.570312 22.90625 23.980469 23.496094 C 23.390625 24.085938 22.75 24.613281 22.054688 25.078125 C 21.363281 25.539062 20.632812 25.933594 19.859375 26.25 C 19.089844 26.570312 18.296875 26.8125 17.476562 26.972656 C 16.660156 27.136719 15.835938 27.21875 15 27.21875 C 14.164062 27.21875 13.339844 27.136719 12.523438 26.972656 C 11.703125 26.8125 10.910156 26.570312 10.140625 26.25 C 9.367188 25.933594 8.636719 25.539062 7.945312 25.078125 C 7.25 24.613281 6.609375 24.085938 6.019531 23.496094 C 5.429688 22.90625 4.902344 22.265625 4.4375 21.574219 C 3.976562 20.878906 3.585938 20.148438 3.265625 19.375 C 2.945312 18.605469 2.707031 17.8125 2.542969 16.992188 C 2.378906 16.175781 2.296875 15.351562 2.296875 14.515625 C 2.296875 13.683594 2.378906 12.855469 2.542969 12.039062 C 2.707031 11.21875 2.945312 10.425781 3.265625 9.65625 C 3.585938 8.886719 3.976562 8.152344 4.4375 7.460938 C 4.902344 6.765625 5.429688 6.125 6.019531 5.535156 C 6.609375 4.945312 7.25 4.417969 7.945312 3.957031 C 8.636719 3.492188 9.367188 3.101562 10.140625 2.78125 C 10.910156 2.460938 11.703125 2.222656 12.523438 2.058594 C 13.339844 1.894531 14.164062 1.816406 15 1.816406 C 15.835938 1.816406 16.660156 1.894531 17.476562 2.058594 C 18.296875 2.222656 19.089844 2.460938 19.859375 2.78125 C 20.632812 3.101562 21.363281 3.492188 22.054688 3.957031 C 22.75 4.417969 23.390625 4.945312 23.980469 5.535156 C 24.570312 6.125 25.097656 6.765625 25.5625 7.460938 C 26.023438 8.152344 26.414062 8.886719 26.734375 9.65625 C 27.054688 10.425781 27.292969 11.21875 27.457031 12.039062 C 27.621094 12.855469 27.703125 13.683594 27.703125 14.515625 Z M 27.703125 14.515625 "/>
</g>
<path style=" stroke:none;fill-rule:nonzero;fill:rgb(15.289307%,22.349548%,25.489807%);fill-opacity:1;" d="M 11.6875 11.203125 C 11.6875 11.496094 11.644531 11.777344 11.558594 12.046875 C 11.476562 12.320312 11.355469 12.558594 11.203125 12.765625 C 11.046875 12.972656 10.867188 13.132812 10.664062 13.242188 C 10.460938 13.355469 10.25 13.410156 10.03125 13.410156 C 9.808594 13.410156 9.597656 13.355469 9.394531 13.242188 C 9.191406 13.132812 9.011719 12.972656 8.859375 12.765625 C 8.703125 12.558594 8.582031 12.320312 8.5 12.046875 C 8.414062 11.777344 8.375 11.496094 8.375 11.203125 C 8.375 10.910156 8.414062 10.628906 8.5 10.355469 C 8.582031 10.085938 8.703125 9.847656 8.859375 9.640625 C 9.011719 9.433594 9.191406 9.273438 9.394531 9.160156 C 9.597656 9.050781 9.808594 8.992188 10.03125 8.992188 C 10.25 8.992188 10.460938 9.050781 10.664062 9.160156 C 10.867188 9.273438 11.046875 9.433594 11.203125 9.640625 C 11.355469 9.847656 11.476562 10.085938 11.558594 10.355469 C 11.644531 10.628906 11.6875 10.910156 11.6875 11.203125 Z M 11.6875 11.203125 "/>
<path style=" stroke:none;fill-rule:nonzero;fill:rgb(7.839966%,11.759949%,12.939453%);fill-opacity:1;" d="M 11.132812 11.203125 C 11.132812 11.421875 11.105469 11.632812 11.050781 11.835938 C 10.996094 12.039062 10.914062 12.21875 10.8125 12.375 C 10.707031 12.53125 10.585938 12.648438 10.453125 12.734375 C 10.316406 12.816406 10.175781 12.859375 10.03125 12.859375 C 9.882812 12.859375 9.742188 12.816406 9.605469 12.734375 C 9.472656 12.648438 9.351562 12.53125 9.25 12.375 C 9.144531 12.21875 9.066406 12.039062 9.007812 11.835938 C 8.953125 11.632812 8.925781 11.421875 8.925781 11.203125 C 8.925781 10.984375 8.953125 10.773438 9.007812 10.570312 C 9.066406 10.367188 9.144531 10.1875 9.25 10.03125 C 9.351562 9.875 9.472656 9.757812 9.605469 9.671875 C 9.742188 9.589844 9.882812 9.546875 10.03125 9.546875 C 10.175781 9.546875 10.316406 9.589844 10.453125 9.671875 C 10.585938 9.757812 10.707031 9.875 10.8125 10.03125 C 10.914062 10.1875 10.996094 10.367188 11.050781 10.570312 C 11.105469 10.773438 11.132812 10.984375 11.132812 11.203125 Z M 11.132812 11.203125 "/>
<path style=" stroke:none;fill-rule:nonzero;fill:rgb(96.469116%,98.039246%,99.21875%);fill-opacity:1;" d="M 11.132812 10.652344 C 11.132812 10.804688 11.082031 10.933594 10.972656 11.039062 C 10.863281 11.148438 10.734375 11.203125 10.582031 11.203125 C 10.429688 11.203125 10.300781 11.148438 10.191406 11.039062 C 10.082031 10.933594 10.03125 10.804688 10.03125 10.652344 C 10.03125 10.496094 10.082031 10.367188 10.191406 10.261719 C 10.300781 10.152344 10.429688 10.097656 10.582031 10.097656 C 10.734375 10.097656 10.863281 10.152344 10.972656 10.261719 C 11.082031 10.367188 11.132812 10.496094 11.132812 10.652344 Z M 11.132812 10.652344 "/>
<path style=" stroke:none;fill-rule:nonzero;fill:rgb(15.289307%,22.349548%,25.489807%);fill-opacity:1;" d="M 14.449219 22.246094 C 11.453125 22.246094 8.925781 19.871094 8.925781 18.382812 L 10.03125 18.382812 C 10.03125 19.050781 11.863281 21.144531 14.449219 21.144531 C 18.101562 21.144531 21.074219 18.417969 21.074219 15.070312 L 22.179688 15.070312 C 22.179688 19.027344 18.710938 22.246094 14.449219 22.246094 Z M 14.449219 22.246094 "/>
<path style=" stroke:none;fill-rule:nonzero;fill:rgb(15.289307%,22.349548%,25.489807%);fill-opacity:1;" d="M 21.871094 13.871094 L 18.558594 11.664062 C 18.476562 11.609375 18.414062 11.535156 18.371094 11.449219 C 18.328125 11.359375 18.308594 11.265625 18.3125 11.167969 C 18.320312 11.070312 18.351562 10.980469 18.40625 10.898438 C 18.460938 10.816406 18.53125 10.753906 18.617188 10.707031 L 21.933594 9.050781 L 22.425781 10.039062 L 19.964844 11.269531 L 22.484375 12.953125 Z M 21.871094 13.871094 "/>
<g clip-path="url(#clip2)" clip-rule="nonzero">
<path style=" stroke:none;fill-rule:nonzero;fill:rgb(100%,89.019775%,41.178894%);fill-opacity:1;" d="M 15 3.472656 C 21.710938 3.472656 27.148438 8.167969 27.148438 13.964844 L 27.6875 13.964844 C 27.648438 13.15625 27.535156 12.359375 27.347656 11.570312 C 27.15625 10.785156 26.894531 10.023438 26.558594 9.289062 C 26.222656 8.550781 25.820312 7.855469 25.351562 7.195312 C 24.882812 6.535156 24.355469 5.925781 23.769531 5.367188 C 23.183594 4.808594 22.550781 4.3125 21.871094 3.875 C 21.191406 3.433594 20.476562 3.066406 19.722656 2.765625 C 18.972656 2.464844 18.199219 2.238281 17.40625 2.085938 C 16.609375 1.929688 15.808594 1.855469 15 1.855469 C 14.191406 1.855469 13.390625 1.929688 12.59375 2.085938 C 11.800781 2.238281 11.027344 2.464844 10.277344 2.765625 C 9.523438 3.066406 8.808594 3.433594 8.128906 3.875 C 7.449219 4.3125 6.816406 4.808594 6.230469 5.367188 C 5.644531 5.925781 5.117188 6.535156 4.648438 7.195312 C 4.179688 7.855469 3.777344 8.550781 3.441406 9.289062 C 3.105469 10.023438 2.84375 10.785156 2.652344 11.570312 C 2.464844 12.359375 2.351562 13.15625 2.3125 13.964844 L 2.851562 13.964844 C 2.851562 8.167969 8.289062 3.472656 15 3.472656 Z M 15 3.472656 "/>
</g>
<g clip-path="url(#clip3)" clip-rule="nonzero">
<path style=" stroke:none;fill-rule:nonzero;fill:rgb(100%,70.199585%,16.859436%);fill-opacity:1;" d="M 27.148438 13.964844 C 27.148438 19.757812 21.710938 24.457031 15 24.457031 C 8.289062 24.457031 2.851562 19.757812 2.851562 13.964844 L 2.3125 13.964844 C 2.304688 14.148438 2.296875 14.332031 2.296875 14.515625 C 2.296875 15.351562 2.378906 16.175781 2.542969 16.992188 C 2.707031 17.8125 2.945312 18.605469 3.265625 19.375 C 3.585938 20.148438 3.976562 20.878906 4.4375 21.574219 C 4.902344 22.265625 5.429688 22.90625 6.019531 23.496094 C 6.609375 24.085938 7.25 24.613281 7.945312 25.078125 C 8.636719 25.539062 9.367188 25.933594 10.140625 26.25 C 10.910156 26.570312 11.703125 26.8125 12.523438 26.972656 C 13.339844 27.136719 14.164062 27.21875 15 27.21875 C 15.835938 27.21875 16.660156 27.136719 17.476562 26.972656 C 18.296875 26.8125 19.089844 26.570312 19.859375 26.25 C 20.632812 25.933594 21.363281 25.539062 22.054688 25.078125 C 22.75 24.613281 23.390625 24.085938 23.980469 23.496094 C 24.570312 22.90625 25.097656 22.265625 25.5625 21.574219 C 26.023438 20.878906 26.414062 20.148438 26.734375 19.375 C 27.054688 18.605469 27.292969 17.8125 27.457031 16.992188 C 27.621094 16.175781 27.703125 15.351562 27.703125 14.515625 C 27.703125 14.332031 27.695312 14.148438 27.6875 13.964844 Z M 27.148438 13.964844 "/>
</g>
<path style=" stroke:none;fill-rule:nonzero;fill:rgb(96.469116%,98.039246%,99.21875%);fill-opacity:1;" d="M 22.5 5.910156 C 22.625 6.035156 22.699219 6.171875 22.722656 6.320312 C 22.75 6.472656 22.714844 6.589844 22.628906 6.679688 C 22.539062 6.769531 22.417969 6.800781 22.269531 6.777344 C 22.117188 6.753906 21.980469 6.679688 21.855469 6.554688 C 21.734375 6.429688 21.660156 6.292969 21.632812 6.144531 C 21.609375 5.992188 21.640625 5.875 21.730469 5.785156 C 21.820312 5.695312 21.9375 5.664062 22.089844 5.6875 C 22.242188 5.710938 22.378906 5.785156 22.5 5.910156 Z M 22.5 5.910156 "/>
<path style=" stroke:none;fill-rule:nonzero;fill:rgb(96.469116%,98.039246%,99.21875%);fill-opacity:1;" d="M 18.886719 3.585938 C 18.949219 3.648438 18.984375 3.714844 18.996094 3.792969 C 19.011719 3.867188 18.992188 3.925781 18.949219 3.972656 C 18.90625 4.015625 18.84375 4.03125 18.769531 4.019531 C 18.695312 4.007812 18.625 3.96875 18.5625 3.910156 C 18.503906 3.847656 18.464844 3.777344 18.453125 3.703125 C 18.441406 3.628906 18.457031 3.566406 18.5 3.523438 C 18.546875 3.476562 18.605469 3.460938 18.679688 3.472656 C 18.757812 3.488281 18.824219 3.523438 18.886719 3.585938 Z M 18.886719 3.585938 "/>
<path style=" stroke:none;fill-rule:nonzero;fill:rgb(96.469116%,98.039246%,99.21875%);fill-opacity:1;" d="M 21.167969 4.484375 C 21.285156 4.601562 21.382812 4.734375 21.460938 4.875 C 21.539062 5.019531 21.589844 5.160156 21.613281 5.304688 C 21.636719 5.449219 21.632812 5.585938 21.597656 5.710938 C 21.566406 5.835938 21.503906 5.9375 21.417969 6.023438 C 21.335938 6.109375 21.230469 6.167969 21.105469 6.203125 C 20.980469 6.238281 20.847656 6.242188 20.703125 6.21875 C 20.558594 6.195312 20.414062 6.144531 20.269531 6.066406 C 20.128906 5.988281 19.996094 5.890625 19.878906 5.773438 C 19.757812 5.652344 19.660156 5.523438 19.585938 5.378906 C 19.507812 5.238281 19.457031 5.09375 19.433594 4.949219 C 19.410156 4.804688 19.414062 4.671875 19.445312 4.546875 C 19.480469 4.421875 19.539062 4.316406 19.625 4.230469 C 19.710938 4.144531 19.816406 4.085938 19.941406 4.054688 C 20.0625 4.019531 20.199219 4.015625 20.34375 4.039062 C 20.488281 4.0625 20.632812 4.113281 20.773438 4.1875 C 20.917969 4.265625 21.046875 4.363281 21.167969 4.484375 Z M 21.167969 4.484375 "/>
</g>
</svg>
